<?xml version="1.0" encoding="utf-8"?>
<!-- Generator: Adobe Illustrator 19.2.1, SVG Export Plug-In . SVG Version: 6.00 Build 0)  -->
<svg version="1.1" id="Layer_1" xmlns="http://www.w3.org/2000/svg" xmlns:xlink="http://www.w3.org/1999/xlink" x="0px" y="0px"
	 viewBox="0 0 1400 980" style="enable-background:new 0 0 1400 980;" xml:space="preserve">
<style type="text/css">
	.st0{fill:#93CDCE;}
	.st1{fill:#F4EFCB;}
	.st2{fill:#7EB7B7;}
	.st3{fill:#589995;}
	.st4{fill:#DED0AF;}
	.st5{fill:#586775;}
	.st6{fill:#333E48;}
	.st7{fill:#F5F1EA;}
	.st8{fill:#CCC3B8;}
	.st9{fill:#F89C5B;}
	.st10{fill:#758393;}
	.st11{fill:#4C5966;}
	.st12{fill:#C2C4C6;}
	.st13{fill:#657585;}
	.st14{fill:#00B7F1;}
	.st15{fill:#5CCAEB;}
	.st16{fill:#C67137;}
	.st17{fill:#F16680;}
	.st18{fill:#53616E;}
	.st19{fill:#C4B595;}
	.st20{fill:#F3E8D4;}
	.st21{fill:#FCBA81;}
	.st22{fill:#009CD7;}
	.st23{fill:#D96931;}
	.st24{fill:#D55A1F;}
	.st25{fill:#C0501A;}
	.st26{fill:#E5DFD6;}
	.st27{fill:#CB6228;}
	.st28{fill:#EFA973;}
	.st29{fill:#92002D;}
	.st30{fill:#FFFDEB;}
	.st31{fill:#C40158;}
	.st32{fill:#00C2F3;}
	.st33{fill:#253A49;}
	.st34{fill:#AF4B25;}
	.st35{fill:#9D7590;}
	.st36{fill:#BF4D66;}
	.st37{fill:#DCE1A2;}
	.st38{fill:#A5AE51;}
	.st39{fill:#3B4752;}
	.st40{fill:#FAF6DB;}
	.st41{fill:#FFD54C;}
	.st42{fill:#DE7942;}
</style>
<path class="st0" d="M138.4,339.7c54.6-128.3,187.9-216.6,314.9-191.4c62.3,12.3,119.9,49.2,183.1,53
	c57.8,3.4,113.4-21.2,168.3-41.3c54.9-20.1,115.1-36.1,169.9-15.7c64.7,24.1,108.9,101.8,100.1,176.2
	c-6.4,54.3-37.4,107.7-23.1,160.2c15.2,55.4,72.8,80.3,123.6,95.8c50.8,15.5,108.7,35.2,130,88.1c19.9,49.5-3.5,110.4-43.3,142.3
	c-39.8,31.9-93.9,38.3-140.9,38.3c-233.7,0-810.5,0-812.1,0C6.8,845.2,83.8,468,138.4,339.7z"/>
<path class="st1" d="M585.1,421.5c-1.2-6.7-9.1-11.9-18.7-11.9c-3,0-5.8,0.5-8.3,1.4c-2.9-11-9.5-18.7-17.3-18.7
	c-8,0-14.9,8.2-17.6,19.8c-3.1-1.6-6.8-2.5-10.9-2.5c-3.2,0-6.2,0.6-8.8,1.6c-4.8-12-16.5-20.5-30.2-20.5c-13.5,0-25.1,8.2-30,19.9
	c-3.8-0.6-7.9-1-12.2-1c-16.5,0-30.2,5.2-32.3,11.9H585.1z"/>
<path class="st1" d="M577.8,263.6c0.6-3.5,4.8-6.2,9.8-6.2c1.6,0,3,0.3,4.4,0.7c1.5-5.8,5-9.8,9.1-9.8c4.2,0,7.8,4.3,9.2,10.4
	c1.6-0.8,3.6-1.3,5.7-1.3c1.7,0,3.3,0.3,4.6,0.8c2.5-6.3,8.7-10.8,15.9-10.8c7.1,0,13.2,4.3,15.8,10.4c2-0.3,4.1-0.5,6.4-0.5
	c8.7,0,15.8,2.7,16.9,6.2H577.8z"/>
<path class="st2" d="M1305.3,664.6c-21.4-52.9-79.2-72.6-130-88.1c-50.8-15.5-108.4-40.4-123.6-95.8c-3.3-12-4.2-24-3.6-36
	c-21.8,3.5-43.1,9.2-63.2,17.4c-49.7,20.3-97.4,54.6-151.9,48.7c-57.6-6.2-95.3-54.4-146.3-78.4c-59.9-28.1-140.6-18-188.9,23.6
	c-26.6,23-42.9,53.1-64.5,79.7c-21.6,26.6-52.4,51.2-90,53.3c-45.7,2.6-84.5-28.8-109.5-61.9c-17-22.6-35.8-50-66.9-51.8
	c-19.5-1.1-37.4,8.9-52,20.1c-8,6.1-15.4,12.8-22.2,19.8C72.9,668.2,102,845.2,309,845.2c1.6,0,578.4,0,812.1,0
	c47,0,101.1-6.4,140.9-38.3C1301.8,775,1325.2,714,1305.3,664.6z"/>
<path class="st3" d="M546,372.2c1.4,0.3,2.8,0.6,4.2,0.9v259.6h19.5V377.4c18.3,4,36.7,8.1,55,12.1c0-7.7,0-12.6,0-18.7
	c38.1,5.1,76.9,8.5,116,10.2c34.4,3.6,69.2,5.4,104.1,5.4c75.3,0,150.7-8.4,221.5-25.1c0.9-3.5,1.8-7,2.7-10.6
	c-87.7,18.2-181.4,27-274.9,26.3c-61.6-3.1-122.6-11.9-180.4-26.4v-0.5c0-2-1.7-3.7-3.7-3.7h-3.7c-2,0-3.7,1.7-3.7,3.7v1.8
	c-8.6,2.1-17.3,4.1-26.1,6c-2.3-0.4-4.6-0.8-6.9-1.2v-21.6c5.9-0.5,11.8-1,17.6-1.4c70.2,11.5,143.3,17.3,216.4,17.3
	c92.2,0,184.3-9.1,270.5-27.4c0.1-1.1,0.3-2.1,0.4-3.2c0.1-0.8,0.2-1.6,0.3-2.4c-147.3,31.4-312.2,36-464.6,13.9
	c4.8-0.4,9.6-0.8,14.4-1.2c0-10.8,0-16.2,0-27.1c-3.6,0.8-7.3,1.6-10.9,2.4v-6.2c73.6,18.3,152.3,27.4,231,27.4
	c78.7,0,157.4-9.2,231-27.4c0-2.8-0.1-5.5-0.3-8.2c-147.1,36.8-314.7,36.8-461.8-0.1v-0.1c0-2-1.7-3.7-3.7-3.7h-3.7
	c-2,0-3.7,1.7-3.7,3.7v1.4c-10.9,2.7-21.9,5.1-32.9,7.4v-10.8h-19.5v14.6c-127.2,23.4-265.5,21.8-391.3-4.7
	c-1.4,2.4-2.9,4.9-4.2,7.4c68.1,14.6,139.9,21.8,211.7,21.8c53,0,106-4,157.5-11.9c-0.4,0.1-0.7,0.3-1,0.6
	c-121.8,26.3-255.9,34.3-385.1,23.8c-0.7,1.7-1.4,3.4-2.2,5.2c37.4,3.1,75.2,4.6,113,4.6c93.2,0,186.3-9.3,273.3-28v3.2
	c-2.4,0.5-4.8,1.1-7.3,1.6c0,4.7,0,7.1,0,11.8c11.8-1,23.7-1.9,35.5-2.9v16.3c-6.6-1.3-13.1-2.6-19.6-4v-1.3c0-1.6-1.3-2.9-2.9-2.9
	h-2.9c-1.6,0-2.9,1.3-2.9,2.9v1.3c-75.3,16.2-155.3,25.4-235.9,27.6c-52.2-4-103.7-12-152.9-23.9c-1,2.5-1.9,5-2.9,7.6
	c27.4,6.7,55.6,12.1,84.1,16.3c-29.5-0.7-59-2.4-88.2-5c-0.6,1.7-1.2,3.5-1.8,5.3c41,3.7,82.6,5.6,124.2,5.6c3.9,0,7.8,0,11.7-0.1
	c35,3.6,70.5,5.3,106,5.3C427,387.8,487.6,382.6,546,372.2z M613.7,359c16.8,4.2,33.8,7.9,51.1,11.1c-13.5-1.4-26.8-3-40.1-4.7
	c0-0.9,0-1.9,0-2.9c-3.6-0.3-7.3-0.6-10.9-0.9V359z M602.6,360.3v0.3c-0.3,0-0.7-0.1-1-0.1C602,360.5,602.3,360.4,602.6,360.3z
	 M569.7,308.6c11.1-2.3,22.1-4.7,32.9-7.4v5.3c0,0.7,0.2,1.4,0.6,1.9c-11.2,2.5-22.3,4.9-33.5,7.4V308.6z M530.6,324.4v-1.3
	c1,0.2,2,0.4,3,0.6C532.6,324,531.6,324.2,530.6,324.4z M546.4,320.9c-5.6-1.1-11.2-2.3-16.8-3.5c-0.5-0.5-1.2-0.8-2-0.8H525
	c8.4-1.3,16.9-2.7,25.2-4.2v7.7C548.9,320.4,547.7,320.6,546.4,320.9z M530.6,354.6c0.6,0.1,1.1,0.2,1.7,0.3c-0.6,0-1.1-0.1-1.7-0.1
	V354.6z M341.4,379.4c59.2-4,117.5-11.7,173.3-23.3c0,3.2,0,5.5,0,9.2c3.4,0.7,6.8,1.5,10.2,2.2C465,376.9,403,380.9,341.4,379.4z"
	/>
<path class="st4" d="M100.8,697.8c24,83.8,84.2,147.4,208.2,147.4c1.6,0,578.4,0,812.1,0c47,0,101.1-6.4,140.9-38.3
	c39.8-31.9,63.2-92.9,43.3-142.3c-18.8-46.6-65.8-67.4-111.5-82.3C545.7,553.8,265,628.8,100.8,697.8z"/>
<path class="st1" d="M1037.8,274.1c-0.2-6.4-5.4-11.4-11.9-11.4c-2.2,0-4.3,0.6-6.1,1.7c-5.4-4.7-15.9-7.9-28-7.9
	c-10.9,0-20.6,2.6-26.3,6.6c-2.2,0.3-4.3,0.7-6.1,1.3c-1.8-1.1-3.9-1.7-6.1-1.7c-4.7,0-8.8,2.8-10.7,6.8c-2.2-7-8.7-12.1-16.5-12.1
	c-9.4,0-17,7.5-17.2,16.8H1037.8z"/>
<path class="st5" d="M113,731.5c29.8,66.6,89.2,113.6,196,113.6c1.6,0,578.4,0,812.1,0c47,0,101.1-6.4,140.9-38.3
	c22.7-18.2,40.1-45.8,47.1-75.4H113z"/>
<path class="st6" d="M1162.1,776.1H587c-5.1,0-9.2-4.1-9.2-9.2l0,0c0-5.1,4.1-9.2,9.2-9.2h575.1c5.1,0,9.2,4.1,9.2,9.2l0,0
	C1171.3,771.9,1167.2,776.1,1162.1,776.1z"/>
<g>
	<path class="st7" d="M1051.3,575.3L995.2,474c-14.3-25.8-41.5-41.8-71-41.8H632.4c-29.9,0-54.2,24.3-54.2,54.2v245.2h383.1H972
		h214.1v-89.1c0-29.7-24.1-53.7-53.7-53.7h-58.5C1064.5,588.7,1055.9,583.6,1051.3,575.3z"/>
	<rect x="882.2" y="432.2" class="st8" width="3.7" height="299.4"/>
	<path class="st9" d="M578.2,731.5h383.1H972h214.1v-78.2c0-0.2,0-0.4,0-0.6h-608V731.5z"/>
	<path class="st10" d="M578.2,636.2h383.1H972h214.1v16.4c0,0,0,0.1,0,0.1h-608V636.2z"/>
	<g>
		<circle class="st11" cx="685.6" cy="723.1" r="48"/>
		<circle class="st12" cx="685.6" cy="723.1" r="24.5"/>
	</g>
	<g>
		<circle class="st11" cx="1056.8" cy="723.1" r="48"/>
		<circle class="st12" cx="1056.8" cy="723.1" r="24.5"/>
	</g>
	<g>
		<path class="st11" d="M1184.9,708.3H1160c-4.3,0-7.9,3.5-7.9,7.9v15.7c0,4.3,3.5,7.9,7.9,7.9h24.9c4.3,0,7.9-3.5,7.9-7.9v-15.7
			C1192.8,711.8,1189.3,708.3,1184.9,708.3z"/>
		<path class="st13" d="M1184.9,708.3H1160c-4.3,0-7.9,3.5-7.9,7.9v1.8h40.7v-1.8C1192.8,711.8,1189.3,708.3,1184.9,708.3z"/>
	</g>
	<g>
		<path class="st11" d="M600.3,708.3h-24.9c-4.3,0-7.9,3.5-7.9,7.9v15.7c0,4.3,3.5,7.9,7.9,7.9h24.9c4.3,0,7.9-3.5,7.9-7.9v-15.7
			C608.2,711.8,604.7,708.3,600.3,708.3z"/>
		<path class="st13" d="M600.3,708.3h-24.9c-4.3,0-7.9,3.5-7.9,7.9v1.8h40.7v-1.8C608.2,711.8,604.7,708.3,600.3,708.3z"/>
	</g>
	<g>
		<path class="st14" d="M1041.6,580.7l-41.1-74.2c-7-12.7-20.4-20.6-34.9-20.6h-44.3c-9.3,0-16.9,7.6-16.9,16.9v53.6
			c0,17.7,14.4,32.1,32.1,32.1h100.6C1041.2,588.7,1043.6,584.3,1041.6,580.7C1041.6,580.8,1041.6,580.7,1041.6,580.7z"/>
		<g>
			<path class="st15" d="M1006.9,518.1l-5.4-9.8L923.8,586c3.9,1.7,8.1,2.6,12.6,2.7L1006.9,518.1z"/>
			<path class="st15" d="M965.7,486h-44.3c-9.3,0-16.9,7.6-16.9,16.9v53.6c0,5.6,1.5,10.9,4,15.5l79.3-79.3
				C981.4,488.4,973.7,486,965.7,486z"/>
		</g>
	</g>
	<path class="st8" d="M1022.8,610.3L1022.8,610.3c-5.2,0-9.5-4.2-9.5-9.5v-19.3c0-5.2,4.2-9.5,9.5-9.5l0,0c5.2,0,9.5,4.2,9.5,9.5
		v19.3C1032.3,606.1,1028,610.3,1022.8,610.3z"/>
	<rect x="882.2" y="636.2" class="st11" width="3.7" height="16.5"/>
	<rect x="882.2" y="652.7" class="st16" width="3.7" height="78.8"/>
	<polygon class="st9" points="774.5,542.3 745,525.2 776.2,471.1 699.4,536 728.9,553.1 697.6,607.2 	"/>
	<g>
		<rect x="606.3" y="410.1" class="st17" width="339.8" height="13"/>
		<g>
			<rect x="946.1" y="408.9" class="st18" width="14.7" height="15.4"/>
			<rect x="591.6" y="408.9" class="st18" width="14.7" height="15.4"/>
		</g>
		<g>
			<circle class="st7" cx="876" cy="416.6" r="2.9"/>
			<circle class="st7" cx="826.1" cy="416.6" r="2.9"/>
			<circle class="st7" cx="776.2" cy="416.6" r="2.9"/>
			<circle class="st7" cx="726.3" cy="416.6" r="2.9"/>
			<circle class="st7" cx="676.5" cy="416.6" r="2.9"/>
		</g>
	</g>
	<g>
		<g>
			<path class="st8" d="M856.7,405.2h-12.3c-2.9,0-5.2,2.3-5.2,5.2v12.3c0,2.9,2.3,5.2,5.2,5.2h12.3c2.9,0,5.2-2.3,5.2-5.2v-12.3
				C861.9,407.5,859.6,405.2,856.7,405.2z"/>
			<rect x="846.5" y="428" class="st10" width="8" height="4.2"/>
		</g>
		<g>
			<path class="st8" d="M708.1,405.2h-12.3c-2.9,0-5.2,2.3-5.2,5.2v12.3c0,2.9,2.3,5.2,5.2,5.2h12.3c2.9,0,5.2-2.3,5.2-5.2v-12.3
				C713.3,407.5,711,405.2,708.1,405.2z"/>
			<rect x="697.9" y="428" class="st10" width="8" height="4.2"/>
		</g>
	</g>
</g>
<path class="st19" d="M164.3,698c-7.1,0-13.4,3.9-16.7,9.6H181C177.6,701.8,171.4,698,164.3,698z"/>
<path class="st19" d="M1272.3,708.3c-7.1,0-13.4,3.9-16.7,9.6h33.4C1285.6,712.2,1279.4,708.3,1272.3,708.3z"/>
<path class="st20" d="M1222.9,675.5c-7.1,0-13.4,3.9-16.7,9.6h33.4C1236.2,679.4,1230,675.5,1222.9,675.5z"/>
<path class="st20" d="M505.1,630c-7.1,0-13.4,3.9-16.7,9.6h33.4C518.4,633.9,512.2,630,505.1,630z"/>
<path class="st19" d="M510.1,694.4H419c-2.3,0-4.2,1.9-4.2,4.2c0,2.3,1.9,4.2,4.2,4.2h91.1c2.3,0,4.2-1.9,4.2-4.2
	C514.3,696.2,512.4,694.4,510.1,694.4z"/>
<g>
	<circle class="st21" cx="445.9" cy="592" r="33.6"/>
	<rect x="395.1" y="559.8" class="st22" width="50.8" height="259.7"/>
	<g>
		<rect x="391.8" y="814.2" class="st23" width="58.7" height="49.9"/>
		<path class="st24" d="M384.5,817.2L384.5,817.2c0-5.1,4.1-9.2,9.2-9.2h54.8c5.1,0,9.2,4.1,9.2,9.2l0,0c0,5.1-4.1,9.2-9.2,9.2
			h-54.8C388.6,826.4,384.5,822.2,384.5,817.2z"/>
		<path class="st23" d="M490.4,895h-98.6v-40.6H464c14.6,0,26.4,11.8,26.4,26.4V895z"/>
		<path class="st25" d="M448.2,830.8h-12.1c-1.9,0-3.5,1.6-3.5,3.5c0,1.9,1.6,3.5,3.5,3.5h12.1c1.9,0,3.5-1.6,3.5-3.5
			C451.7,832.4,450.1,830.8,448.2,830.8z"/>
		<path class="st25" d="M448.2,843.6h-12.1c-1.9,0-3.5,1.6-3.5,3.5c0,1.9,1.6,3.5,3.5,3.5h12.1c1.9,0,3.5-1.6,3.5-3.5
			C451.7,845.2,450.1,843.6,448.2,843.6z"/>
	</g>
	<path class="st21" d="M448.2,606.9c-2.4,0-4.8-0.4-7.2-1.1c-12.8-4-19.9-17.5-15.9-30.3c16.8-54,7.6-125.4-3.9-156.6
		c-4.6-12.5,1.8-26.5,14.4-31.1c12.6-4.6,26.5,1.8,31.1,14.4c14.2,38.5,25,122.2,4.7,187.6C468.1,600.2,458.5,606.9,448.2,606.9z"/>
	<path class="st26" d="M455.5,491.1c-14,0-26.2-10.4-28-24.7c-2.3-17.9-6.1-35.1-10.1-46.1c-5.4-14.6,2.1-30.9,16.8-36.2
		c14.6-5.4,30.9,2.1,36.2,16.8c5.6,15.2,10.3,36,13.1,58.5c2,15.5-9,29.6-24.4,31.6C457.9,491,456.7,491.1,455.5,491.1z"/>
	<rect x="324.8" y="559.8" class="st14" width="50.8" height="259.7"/>
	<path class="st7" d="M405.6,357h-36.7c-31.9,0-57.8,25.9-57.8,57.8v42.1h152.2v-42.1C463.4,382.9,437.5,357,405.6,357z"/>
	<path class="st14" d="M311.1,557.4c0,42,34.1,76.1,76.1,76.1h0c42,0,76.1-34.1,76.1-76.1V456.9H311.1V557.4z"/>
	<rect x="360.2" y="357" class="st14" width="20.3" height="118.7"/>
	<rect x="423.6" y="364.3" class="st14" width="20.3" height="111.4"/>
	<g>
		<path class="st27" d="M321.5,326.6h-25.9c-8.7,0-15.8-7.1-15.8-15.8V176.2h41.7V326.6z"/>
		<g>
			<path class="st21" d="M498.8,236.1h-12.9v52.1h12.9c14.4,0,26.1-11.7,26.1-26.1v0C524.8,247.7,513.1,236.1,498.8,236.1z"/>
			<path class="st21" d="M291.3,236.1h12.9v52.1h-12.9c-14.4,0-26.1-11.7-26.1-26.1v0C265.3,247.7,277,236.1,291.3,236.1z"/>
		</g>
		<path class="st21" d="M296.9,158.2v123.5c0,54.2,43.9,98.2,98.2,98.2h0c54.2,0,98.2-43.9,98.2-98.2V158.2
			c0-15.7-12.7-28.5-28.5-28.5H325.4C309.6,129.7,296.9,142.5,296.9,158.2z"/>
		<path class="st27" d="M417.6,278.5h-6.4l-54.1,9.5c-1.8,0.3-3,2-2.7,3.8v0c2.1,12.1,13.7,20.2,25.8,18l34.2-6l34.2,6
			c12.1,2.1,23.6-5.9,25.8-18v0c0.3-1.8-0.9-3.5-2.7-3.8L417.6,278.5z"/>
		<path class="st28" d="M414.4,247.5c-8.2,0-14.8,6.6-14.8,14.8v19c0,8.2,6.6,14.8,14.8,14.8c8.2,0,14.8-6.6,14.8-14.8v-19
			C429.2,254.2,422.6,247.5,414.4,247.5z"/>
		<g>
			<path class="st27" d="M412.2,357c-4.6,0-8.4,3.8-8.4,8.4v10.1c0,4.6,3.8,8.4,8.4,8.4c4.6,0,8.4-3.8,8.4-8.4v-10.1
				C420.6,360.8,416.8,357,412.2,357z"/>
			<path class="st27" d="M412.2,384.4c-11.6,0-22.8-3.4-32.3-10c-3.7-2.5-4.6-7.5-2.1-11.2c2.5-3.7,7.5-4.6,11.2-2.1
				c6.9,4.7,14.9,7.2,23.2,7.2c8.3,0,16.4-2.5,23.2-7.2c3.7-2.5,8.7-1.6,11.2,2.1c2.5,3.7,1.6,8.7-2.1,11.2
				C434.9,381,423.8,384.4,412.2,384.4z"/>
		</g>
		<g>
			<path class="st29" d="M443.8,327.1c-2.2,5-5.7,9.4-10,12.6c-5.4,4.1-12.1,6.5-19.4,6.5s-14-2.4-19.4-6.5
				c-4.3-3.3-7.8-7.6-10-12.6c-2.4-5.5,1.7-11.6,7.7-11.6h43.4C442.1,315.5,446.2,321.7,443.8,327.1z"/>
			<path class="st30" d="M436.1,315.5h-43.4c-5.8,0-9.8,5.8-7.8,11.1H444C445.9,321.3,441.9,315.5,436.1,315.5z"/>
			<path class="st31" d="M433.8,339.8c-5.4,4.1-12.1,6.5-19.4,6.5s-14-2.4-19.4-6.5c5-4.9,11.8-7.9,19.4-7.9
				S428.8,334.9,433.8,339.8z"/>
		</g>
		<path class="st27" d="M288,176.2v83.9c0,8.2,6.7,14.9,14.9,14.9c8.2,0,14.9-6.7,14.9-14.9v-83.9H288z"/>
		<path class="st27" d="M492.3,190.7v81.1l0,0c5.5,0,9.9-4.4,9.9-9.9v-71.2H492.3z"/>
		<g>
			<path class="st32" d="M373.7,175.9h121.6V161c0-42-34-76-76-76h-63.5c-42,0-76,34-76,76v36.6h93.9V175.9z"/>
			<g>
				<path class="st22" d="M383.9,192.7c2.1,3,5.4,4.7,8.8,4.9h-53.5c-3.4-0.2-6.7-1.9-8.8-4.9c-3.7-5.2-2.4-12.4,2.8-16.1
					c25.7-18.1,55.8-27.1,86-27.1h53.5c-9,0-17.9,0.8-26.8,2.4c-20.9,3.8-41.1,12-59.2,24.7c-0.2,0.1-0.3,0.2-0.5,0.4l0,0
					C381.4,180.7,380.3,187.6,383.9,192.7z"/>
				<path class="st22" d="M551.9,197.6h-53.5c-2.3,0-4.6-0.7-6.6-2.1c-14.1-9.9-29.7-16.6-45.9-20.1c19.7-4.3,40.2-3.7,59.7,1.5h0
					c14,3.7,27.4,9.9,39.7,18.6C547.3,196.9,549.6,197.6,551.9,197.6z"/>
				<path class="st14" d="M561.4,192.7c-2.2,3.2-5.8,4.9-9.5,4.9c-2.3,0-4.6-0.7-6.6-2.1c-12.3-8.6-25.7-14.8-39.7-18.6h0
					c-19.5-5.2-40-5.7-59.7-1.5h0c-16.2,3.5-31.8,10.2-45.9,20.1c-1.9,1.3-4.1,2-6.2,2.1h-1.1c-3.4-0.2-6.7-1.9-8.8-4.9
					c-3.6-5.1-2.5-12,2.3-15.7l0,0c0.2-0.1,0.3-0.2,0.5-0.4c18.1-12.7,38.3-20.9,59.2-24.7c8.8-1.6,17.8-2.4,26.8-2.4
					c30.1,0,60.3,9,86,27.1C563.8,180.2,565.1,187.5,561.4,192.7z"/>
			</g>
		</g>
		<circle class="st33" cx="455.7" cy="252.8" r="18"/>
		<path class="st34" d="M493.4,203.8h-52.1c-4.9,0-8.8,4-8.8,8.8c0,4.9,4,8.8,8.8,8.8h52.1c4.9,0,8.8-4,8.8-8.8
			C502.3,207.7,498.3,203.8,493.4,203.8z"/>
		<circle class="st33" cx="357" cy="252.8" r="18"/>
		<path class="st34" d="M335.4,203.8h52.1c4.9,0,8.8,4,8.8,8.8c0,4.9-4,8.8-8.8,8.8h-52.1c-4.9,0-8.8-4-8.8-8.8
			C326.6,207.7,330.6,203.8,335.4,203.8z"/>
	</g>
	<path class="st21" d="M322.9,617.9c-2.5,0-5-0.7-7.3-2.1l-25.3-15.5c-6.7-4.1-8.8-12.7-4.7-19.4c4.1-6.7,12.8-8.8,19.4-4.7
		l25.3,15.5c6.7,4.1,8.8,12.7,4.7,19.4C332.3,615.5,327.6,617.9,322.9,617.9z"/>
	<path class="st21" d="M288.1,625.7c-13.4,0-24.2-10.8-24.2-24.2l0-5.4c0-90.4,0-161.8,38.3-213.2c8-10.7,23.2-12.9,33.9-4.9
		c10.7,8,12.9,23.2,4.9,33.9c-28.7,38.5-28.7,102.8-28.7,184.3l0,5.4C312.3,614.9,301.4,625.7,288.1,625.7z"/>
	<g>
		<path class="st35" d="M347.7,608.6c-3.8,0-6.9,3.1-6.9,6.9v48.6h13.8v-48.6C354.6,611.7,351.5,608.6,347.7,608.6z"/>
		<path class="st35" d="M228,608.6c-3.8,0-6.9,3.1-6.9,6.9v48.6h13.8v-48.6C234.9,611.7,231.8,608.6,228,608.6z"/>
		<path class="st36" d="M220.5,617h136.1c4.4,0,8-3.6,8-8v0c0-4.4-3.6-8-8-8H220.5c-4.4,0-8,3.6-8,8v0
			C212.5,613.4,216.1,617,220.5,617z"/>
		<circle class="st17" cx="356.7" cy="609" r="8"/>
	</g>
	<g>
		<path class="st9" d="M249.8,685.4c-5.4,3.1-12.3,1.3-15.4-4.1l-23.2-40.1c-3.1-5.4-1.3-12.3,4.1-15.4l19.8-11.4
			c5.4-3.1,12.3-1.3,15.4,4.1l23.2,40.1c3.1,5.4,1.3,12.3-4.1,15.4L249.8,685.4z"/>
		<path class="st5" d="M237.3,618.1l-19.8,11.4c-3.3,1.9-4.4,6.1-2.5,9.3l23.2,40.1c1.9,3.3,6.1,4.4,9.3,2.5l19.8-11.4
			c3.3-1.9,4.4-6.1,2.5-9.3l-23.2-40.1C244.8,617.3,240.6,616.2,237.3,618.1z"/>
		<path class="st37" d="M242.2,626.6L222.5,638c-0.8,0.5-1.1,1.5-0.6,2.4l5.9,10.2c0.5,0.8,1.5,1.1,2.4,0.6l19.8-11.4
			c0.8-0.5,1.1-1.5,0.6-2.4l-5.9-10.2C244.1,626.4,243.1,626.1,242.2,626.6z"/>
		<g>
			<path class="st38" d="M234.3,644.4l-4.7,2.7l-3.8-6.6l4.7-2.7L234.3,644.4z M230,645.5l2.7-1.6l-2.7-4.6l-2.7,1.6L230,645.5z"/>
			<g>
				<path class="st38" d="M241.1,640.4l-4.7,2.7l-3.8-6.6l4.7-2.7L241.1,640.4z M236.8,641.6l2.7-1.6l-2.7-4.6l-2.7,1.6L236.8,641.6
					z"/>
				<path class="st38" d="M246.5,637.3l-4.7,2.7l-3.8-6.6l4.7-2.7L246.5,637.3z M242.2,638.5l2.7-1.6l-2.7-4.6l-2.7,1.6L242.2,638.5
					z"/>
			</g>
			<rect x="234.5" y="642.6" transform="matrix(0.866 -0.5 0.5 0.866 -290.0741 203.6656)" class="st38" width="1.1" height="1.1"/>
		</g>
		<ellipse transform="matrix(0.866 -0.5 0.5 0.866 -296.1913 212.0528)" class="st39" cx="247.6" cy="658.7" rx="11" ry="11"/>
		<g>
			<path class="st11" d="M247.7,647.8c-0.6,3.3-0.1,6.8,1.7,9.9s4.6,5.3,7.7,6.4c1.8-3.3,1.9-7.4-0.1-10.8
				C255.1,649.8,251.5,647.8,247.7,647.8z"/>
			<path class="st11" d="M238.1,664.2c2,3.5,5.6,5.4,9.4,5.5c0.6-3.3,0.1-6.8-1.7-9.9c-1.8-3.1-4.6-5.3-7.7-6.4
				C236.2,656.6,236.1,660.7,238.1,664.2z"/>
		</g>
		<path class="st17" d="M244.5,653.3L244.5,653.3c-0.5,0.3-1.2,0.1-1.5-0.4l-0.5-0.9c-0.3-0.5-0.1-1.2,0.4-1.5l0,0
			c0.5-0.3,1.2-0.1,1.5,0.4l0.5,0.9C245.2,652.3,245,653,244.5,653.3z"/>
	</g>
	<path class="st26" d="M292.3,500.6c-1.4,0-2.8-0.1-4.2-0.3c-15.4-2.3-26.1-16.7-23.8-32.1c5.2-35.3,16.2-63.2,34.6-87.8
		c9.3-12.5,27-15.1,39.5-5.8c12.5,9.3,15.1,27,5.8,39.5c-12.7,17.1-20.1,36.3-24,62.4C318.1,490.6,306,500.6,292.3,500.6z"/>
	<path class="st22" d="M374.9,469v13.6c0,15.2,12.3,27.4,27.4,27.4h4c15.2,0,27.4-12.3,27.4-27.4V469H374.9z"/>
	<circle class="st21" cx="288.1" cy="604.2" r="33.6"/>
	<g>
		<polygon class="st40" points="350.8,590 342.2,599.5 342.4,604.5 351.3,609.6 355.7,607.3 359.7,595.1 		"/>
		<rect x="329.5" y="611.9" transform="matrix(0.5 -0.866 0.866 0.5 -363.83 603.9024)" class="st40" width="23.1" height="10.2"/>
		<polygon class="st41" points="338.7,634.3 327.3,627.7 314.2,646.8 328.7,655.2 		"/>
		<path class="st41" d="M336.5,638.3l-11.6-6.7c-2.2-1.3-2.9-4.1-1.7-6.2l0,0c1.3-2.2,4.1-2.9,6.2-1.7l11.6,6.7
			c2.2,1.3,2.9,4.1,1.7,6.2l0,0C341.5,638.8,338.7,639.6,336.5,638.3z"/>
		<path class="st18" d="M331.6,647.8l-12.4-7.1c-2-1.1-4.5-0.5-5.7,1.5l-18.9,32.7c-1.1,2-0.5,4.5,1.5,5.7l12.4,7.1
			c2,1.1,4.5,0.5,5.7-1.5l18.9-32.7C334.2,651.5,333.5,648.9,331.6,647.8z"/>
	</g>
	<g>
		<path class="st36" d="M210.1,656.7v53c0,8.9,7.2,16.1,16.1,16.1h26.1c8.9,0,16.1-7.2,16.1-16.1v-53H210.1z"/>
		<rect x="228" y="656.7" class="st36" width="133.1" height="69.1"/>
		<path class="st17" d="M318.5,656.7v53c0,8.9,7.2,16.1,16.1,16.1h26.1c8.9,0,16.1-7.2,16.1-16.1v-53H318.5z"/>
	</g>
	<g>
		<rect x="321.8" y="814.2" class="st42" width="58.7" height="49.9"/>
		<path class="st23" d="M314.5,817.2L314.5,817.2c0-5.1,4.1-9.2,9.2-9.2h54.8c5.1,0,9.2,4.1,9.2,9.2l0,0c0,5.1-4.1,9.2-9.2,9.2
			h-54.8C318.7,826.4,314.5,822.2,314.5,817.2z"/>
		<path class="st42" d="M420.5,895h-98.6v-40.6h72.2c14.6,0,26.4,11.8,26.4,26.4V895z"/>
		<path class="st25" d="M378.3,830.8h-12.1c-1.9,0-3.5,1.6-3.5,3.5c0,1.9,1.6,3.5,3.5,3.5h12.1c1.9,0,3.5-1.6,3.5-3.5
			C381.8,832.4,380.2,830.8,378.3,830.8z"/>
		<path class="st25" d="M378.3,843.6h-12.1c-1.9,0-3.5,1.6-3.5,3.5c0,1.9,1.6,3.5,3.5,3.5h12.1c1.9,0,3.5-1.6,3.5-3.5
			C381.8,845.2,380.2,843.6,378.3,843.6z"/>
	</g>
</g>
</svg>
